<svg version="1.2" xmlns="http://www.w3.org/2000/svg" viewBox="0 0 140 23" width="140" height="23">
	<title>MAGbank</title>
	<style>
	</style>
	<path id="MAGbank" fill="#ffffff" aria-label="MAGbank"  d="m24.55 1.63l-10.26 13.08l-5.25-13.08h-3.96l-4.2 21h4.56l2.52-12.6l4.32 10.38h2.16l8.01-10.26l-2.46 12.48h4.56l4.17-21zm18.66 21h4.86l-5.16-21h-4.8l-13.59 21h5.19l2.73-4.5h9.78zm-8.52-8.19l4.95-8.1l1.77 8.1zm28.17 3.66c-1.11 0.51-2.25 0.75-3.48 0.75c-3.99 0-6.09-2.13-6.09-5.28c0-4.62 3.15-8.16 8.07-8.16c2.34 0 4.08 0.66 5.49 2.34l3.48-2.82c-1.8-2.37-4.74-3.66-8.76-3.66c-7.95 0-13.2 5.43-13.2 12.6c0 5.43 4.02 9.12 10.38 9.12c3.03 0 5.91-0.93 8.04-2.55l1.74-8.64h-4.44zm17.01-11.25c-2.76 0-5.01 1.14-6.51 3.06l1.89-9.54h-1.5l-4.44 22.26h1.47l0.78-3.99c0.75 2.61 2.91 4.11 6.21 4.11c5.13 0 8.88-3.99 8.88-9.39c0-4.02-2.73-6.51-6.78-6.51zm-2.07 14.55c-3.54 0-5.58-1.92-5.58-5.25c0-4.62 3.12-7.95 7.35-7.95c3.51 0 5.55 1.92 5.55 5.25c0 4.59-3.09 7.95-7.32 7.95zm26.28-14.43l-0.78 3.9c-0.75-2.55-2.91-4.02-6.18-4.02c-5.13 0-8.85 3.99-8.85 9.39c0 4.02 2.7 6.51 6.75 6.51c2.79 0 5.1-1.2 6.6-3.18l-0.6 3.06h1.44l3.12-15.66zm-8.76 14.43c-3.51 0-5.55-1.92-5.55-5.25c0-4.59 3.12-7.95 7.35-7.95c3.51 0 5.55 1.92 5.55 5.25c0 4.62-3.12 7.95-7.35 7.95zm21.66-14.55c-2.67 0-4.95 0.96-6.48 3.09l0.6-2.97h-1.47l-3.12 15.66h1.5l1.71-8.52c0.78-3.9 3.3-5.91 6.87-5.91c2.94 0 4.41 1.44 4.41 3.87c0 0.48-0.03 0.96-0.15 1.5l-1.8 9.06h1.5l1.8-9.06c0.12-0.6 0.18-1.17 0.18-1.71c0-3.09-1.95-5.01-5.55-5.01zm24.15 0.12h-2.19l-11.67 9.09l3.12-15.69h-1.5l-4.44 22.26h1.5l0.93-4.62l4.86-3.75l5.07 8.37h1.74l-5.64-9.27z" />
</svg>